<svg xmlns="http://www.w3.org/2000/svg" width="121" height="110.732" viewBox="0 0 121 110.732">
  <g id="Logo" transform="translate(-89 -110.268)">
    <g id="Group_18" data-name="Group 18">
      <line id="Line_27" data-name="Line 27" x2="67" transform="translate(106.5 197.5)" fill="none" stroke="#000" stroke-width="2"/>
      <text id="HALF_COOKIE" data-name="HALF COOKIE" transform="translate(89 198)" fill="#630" font-size="17" font-family="ProzaLibre-Bold, Proza Libre" font-weight="700"><tspan x="0" y="17">HALF COOKIE</tspan></text>
      <line id="Line_28" data-name="Line 28" x2="10" transform="translate(179.5 197.5)" fill="none" stroke="#000" stroke-width="2"/>
    </g>
    <g id="Group_19" data-name="Group 19">
      <g id="Group_8" data-name="Group 8" transform="translate(-20 2)">
        <g id="Ellipse_8" data-name="Ellipse 8" transform="translate(202 151)" fill="#630" stroke="#000" stroke-width="1">
          <circle cx="11.5" cy="11.5" r="11.5" stroke="none"/>
          <circle cx="11.5" cy="11.5" r="11" fill="none"/>
        </g>
        <g id="Ellipse_9" data-name="Ellipse 9" transform="translate(208 157)" fill="#fff" stroke="#000" stroke-width="1">
          <circle cx="6" cy="6" r="6" stroke="none"/>
          <circle cx="6" cy="6" r="5.5" fill="none"/>
        </g>
      </g>
      <g id="Group_13" data-name="Group 13">
        <g id="Ellipse_7" data-name="Ellipse 7" transform="translate(106 112)" fill="#630" stroke="#000" stroke-width="1">
          <circle cx="43" cy="43" r="43" stroke="none"/>
          <circle cx="43" cy="43" r="42.5" fill="none"/>
        </g>
        <line id="Line_26" data-name="Line 26" x1="85" transform="translate(106.5 153.5)" fill="none" stroke="#707070" stroke-width="1"/>
      </g>
      <g id="Group_11" data-name="Group 11">
        <g id="Group_10" data-name="Group 10" transform="translate(-3 14.906)">
          <path id="Path_3" data-name="Path 3" d="M1781.164,458.516l-1.312,2.13.574,1Z" transform="translate(-1589.07 -304.438)" fill="#fff" stroke="#630" stroke-width="1.1"/>
          <path id="Path_5" data-name="Path 5" d="M1776.282,478.359c.777-2.773.906-2.509.906-2.509Z" transform="translate(-1585.751 -320.031)" fill="none" stroke="#630" stroke-width="1"/>
        </g>
        <g id="Path_6" data-name="Path 6" transform="translate(186 172)" fill="#fff">
          <path d="M 0.6767038702964783 0.6602166891098022 C 0.621637225151062 0.6268376708030701 0.550167441368103 0.555976927280426 0.5146572589874268 0.4999974966049194 L 1.5 0.4999974966049194 L 1.448660016059875 0.4999974966049194 L 1.398390054702759 0.5104274749755859 L 0.6767038702964783 0.6602166891098022 Z" stroke="none"/>
          <path d="M 0.5 -2.503395080566406e-06 L 1.5 -2.503395080566406e-06 C 1.776139974594116 -2.503395080566406e-06 2 0.2238575220108032 2 0.4999974966049194 C 2 0.7761374711990356 1.776139974594116 0.9999974966049194 1.5 0.9999974966049194 L 0.6718699932098389 1.171877503395081 C 0.3957300186157227 1.171877503395081 0 0.7761374711990356 0 0.4999974966049194 C 0 0.2238575220108032 0.2238600254058838 -2.503395080566406e-06 0.5 -2.503395080566406e-06 Z" stroke="none" fill="#630"/>
        </g>
      </g>
      <g id="Group_9" data-name="Group 9">
        <path id="Path_3-2" data-name="Path 3" d="M1780.9,458.516l-1.047,3.312.458,1.548Z" transform="translate(-1589.07 -304)" fill="#fff" stroke="#630" stroke-width="1.1"/>
        <path id="Path_4" data-name="Path 4" d="M1780.078,458.125v1.141l.813-1.141Z" transform="translate(-1588.656 -303.625)" fill="none" stroke="#630" stroke-width="1"/>
      </g>
      <g id="Group_16" data-name="Group 16">
        <g id="Path_7" data-name="Path 7" transform="translate(106 111.571)" fill="#fc9">
          <path d="M 43.70303344726562 42.42919921875 C 24.20750999450684 42.42919921875 3.892029523849487 41.97259902954102 0.5028011202812195 41.89307022094727 C 0.565621018409729 36.41756439208984 1.686898946762085 31.12435531616211 3.838055610656738 26.15156364440918 C 5.975200176239014 21.21118545532227 9.03849983215332 16.78219795227051 12.94288921356201 12.98761940002441 C 16.83987808227539 9.20021915435791 21.38493347167969 6.228808403015137 26.45177841186523 4.155919551849365 C 31.68534469604492 2.014819622039795 37.25296783447266 0.9291973114013672 43 0.9291973114013672 C 48.74703216552734 0.9291973114013672 54.31465530395508 2.014819622039795 59.54822158813477 4.155919551849365 C 64.61506652832031 6.228808403015137 69.16012573242188 9.20021915435791 73.05711364746094 12.98761940002441 C 76.96150207519531 16.78219795227051 80.02480316162109 21.21118545532227 82.16194152832031 26.15156364440918 C 84.31310272216797 31.12435531616211 85.43438720703125 36.41831207275391 85.49720764160156 41.89381790161133 C 82.22657775878906 41.9753532409668 63.13972091674805 42.42919921875 43.70303344726562 42.42919921875 Z" stroke="none"/>
          <path d="M 43 1.429195404052734 C 37.31821060180664 1.429195404052734 31.81428146362305 2.502292633056641 26.64110565185547 4.618690490722656 C 21.63375091552734 6.667232513427734 17.14225006103516 9.603584289550781 13.29135131835938 13.3461856842041 C 9.43414306640625 17.09491539001465 6.407989501953125 21.47005653381348 4.296951293945312 26.3500804901123 C 2.237174987792969 31.11163330078125 1.133399963378906 36.17182159423828 1.011360168457031 41.40473556518555 C 5.553314208984375 41.50908660888672 25.00483703613281 41.92919921875 43.70303344726562 41.92919921875 C 62.31652450561523 41.92919921875 80.6092529296875 41.51284790039062 84.98867034912109 41.40618515014648 C 84.86687469482422 36.17254638671875 83.76309204101562 31.11224937438965 81.70304870605469 26.3500804901123 C 79.59201049804688 21.47005653381348 76.56585693359375 17.09491539001465 72.70864868164062 13.3461856842041 C 68.85775756835938 9.603584289550781 64.36624908447266 6.667232513427734 59.35889434814453 4.618690490722656 C 54.18571853637695 2.502292633056641 48.68178939819336 1.429195404052734 43 1.429195404052734 M 43 0.4291954040527344 C 66.74824523925781 0.4291954040527344 86 18.97816276550293 86 42.38122177124023 C 86 42.38122177124023 65.20303344726562 42.92919921875 43.70303344726562 42.92919921875 C 22.20303344726562 42.92919921875 0 42.38122177124023 0 42.38122177124023 C 0 18.97816276550293 19.25175476074219 0.4291954040527344 43 0.4291954040527344 Z" stroke="none" fill="#000"/>
        </g>
        <g id="Group_15" data-name="Group 15">
          <circle id="Ellipse_15" data-name="Ellipse 15" cx="3" cy="3" r="3" transform="translate(150 137)"/>
          <circle id="Ellipse_17" data-name="Ellipse 17" cx="3" cy="3" r="3" transform="translate(145 118)"/>
          <circle id="Ellipse_22" data-name="Ellipse 22" cx="3" cy="3" r="3" transform="translate(170 142)"/>
          <circle id="Ellipse_16" data-name="Ellipse 16" cx="2" cy="2" r="2" transform="translate(170 134)"/>
          <circle id="Ellipse_24" data-name="Ellipse 24" cx="2" cy="2" r="2" transform="translate(127 148)"/>
          <circle id="Ellipse_18" data-name="Ellipse 18" cx="2" cy="2" r="2" transform="translate(137 128)"/>
          <circle id="Ellipse_21" data-name="Ellipse 21" cx="2" cy="2" r="2" transform="translate(136 141)"/>
          <circle id="Ellipse_19" data-name="Ellipse 19" cx="2" cy="2" r="2" transform="translate(127 124)"/>
          <circle id="Ellipse_20" data-name="Ellipse 20" cx="1.5" cy="1.5" r="1.5" transform="translate(120 142)"/>
          <circle id="Ellipse_23" data-name="Ellipse 23" cx="1.5" cy="1.5" r="1.5" transform="translate(159 129)"/>
        </g>
      </g>
      <g id="Drip">
        <rect id="Rectangle_17" data-name="Rectangle 17" width="2" height="13" rx="1" transform="translate(120 148)" fill="#fc9"/>
        <rect id="Rectangle_18" data-name="Rectangle 18" width="2" height="22" rx="1" transform="translate(116 148)" fill="#fc9"/>
      </g>
      <g id="Bite_" data-name="Bite*">
        <g id="bite1" transform="translate(173 120)" fill="#f4faff" stroke="#000" stroke-width="1">
          <circle cx="5" cy="5" r="5" stroke="none"/>
          <circle cx="5" cy="5" r="4.5" fill="none"/>
        </g>
        <g id="bite2" transform="matrix(0.999, -0.035, 0.035, 0.999, 165.794, 119.178)" fill="#f4faff" stroke="#000" stroke-width="1">
          <circle cx="5.5" cy="5.5" r="5.5" stroke="none"/>
          <circle cx="5.5" cy="5.5" r="5" fill="none"/>
        </g>
        <path id="bite2.2" d="M5.5,0a6.014,6.014,0,0,1,5.693,5.891,6.8,6.8,0,0,1-1.487,4.573S0,8.538,0,5.5A5.5,5.5,0,0,1,5.5,0Z" transform="matrix(0.999, -0.035, 0.035, 0.999, 165.794, 118.178)" fill="#f4faff"/>
        <path id="bite1.1" d="M5.3,0a4.969,4.969,0,0,1,4.891,5.2,4.784,4.784,0,0,1-5.026,4.844c-2.925,0-7.146-1.831-7.146-4.609S2.371,0,5.3,0Z" transform="translate(173.406 119)" fill="#f4faff"/>
        <g id="Ellipse_12" data-name="Ellipse 12" transform="translate(161 116)" fill="#f4faff" stroke="#000" stroke-width="1">
          <circle cx="6.5" cy="6.5" r="6.5" stroke="none"/>
          <circle cx="6.5" cy="6.5" r="6" fill="none"/>
        </g>
        <path id="Path_8" data-name="Path 8" d="M8,0c4.418,0,6.446,5.334,6.446,8.924s-5.586,4.763-5.586,4.763S1.325,10.09,1.325,6.5,3.582,0,8,0Z" transform="translate(161 115)" fill="#f4faff"/>
        <g id="Ellipse_13" data-name="Ellipse 13" transform="translate(156 111)" fill="#fff" stroke="#000" stroke-width="1">
          <circle cx="6.5" cy="6.5" r="6.5" stroke="none"/>
          <circle cx="6.5" cy="6.5" r="6" fill="none"/>
        </g>
        <path id="Path_9" data-name="Path 9" d="M4.876-.732C8.466-.732,13,2.91,13,6.5s-2.08,6.87-5.669,6.87S0,10.09,0,6.5,1.286-.732,4.876-.732Z" transform="translate(157 111)" fill="#f4faff"/>
      </g>
    </g>
  </g>
</svg>
